# xmcd
#
# Track frame offsets: 
#        150
#        13679
#        27116
#        42390
#        56509
#        70932
#        84695
#        99550
#        112486
#        139240
#        153479
#        167792
#        181727
#        195073
#        210904
#        227119
#        241532
#        255944
#        268489
#        282602
#
# Disc length: 3958 seconds
#
# Revision: 0
# Processed by: cddbd v1.5.2PL0 Copyright (c) Steve Scherf et al.
# Submitted via: ExactAudioCopy v0.99pb5
#
DISCID=160f7414
DTITLE=Various Artist - Ladies Sing The Blues (3CD3)
DYEAR=2010
DGENRE=blues
TTITLE0=Lena Horne - Beale Street Blues
TTITLE1=Mildred Bailey - Harlem Lullaby
TTITLE2=Bessie Smith - Send Me To The Lectric Chair
TTITLE3=Billie Holiday - Good Morning Heartache
TTITLE4=Duke Ellington and Ivie Anderson - Shoe Shine Boy
TTITLE5=Ada Brown - Oday Blues
TTITLE6=Trixie Smith - Freight Train Blues
TTITLE7=Una Mae Carlisle - Hangover Blues
TTITLE8=Lena Horne - Frankie and Johnny
TTITLE9=Peggie Lee - My Old Flame
TTITLE10=Rosetta Howard - Let Your Linen Hang Low
TTITLE11=Ada Brown - Evil Mama Blues
TTITLE12=Rosetta Howard - Rosetta Blues
TTITLE13=Mildred Bailey - Georgia On My Mind
TTITLE14=Maxine Sullivan - It Ain't Necessarily So
TTITLE15=Mildred Bailey - Rockin' Chair
TTITLE16=Bessie Smith - St. Louis Blues
TTITLE17=Lillian Glinn - Cravin' A Man Blues
TTITLE18=Bessie Smith - Keep On A Rainin'
TTITLE19=Ma Rainey - Toad Frog Blues
EXTD=
EXTT0=
EXTT1=
EXTT2=
EXTT3=
EXTT4=
EXTT5=
EXTT6=
EXTT7=
EXTT8=
EXTT9=
EXTT10=
EXTT11=
EXTT12=
EXTT13=
EXTT14=
EXTT15=
EXTT16=
EXTT17=
EXTT18=
EXTT19=
PLAYORDER=
